<svg xmlns="http://www.w3.org/2000/svg" xmlns:xlink="http://www.w3.org/1999/xlink" width="1094" height="1111" viewBox="0 0 1094 1111"><defs><path id="9lrka" d="M677-153c0-54.124 43.876-98 98-98h650c54.124 0 98 43.876 98 98v650c0 54.124-43.876 98-98 98H775c-54.124 0-98-43.876-98-98z"/><path id="9lrkb" d="M619-229c0-54.124 43.876-98 98-98h650c54.124 0 98 43.876 98 98v650c0 54.124-43.876 98-98 98H717c-54.124 0-98-43.876-98-98z"/><linearGradient id="9lrkc" x1="1300.84" x2="1246.24" y1="-5.11" y2="508.41" gradientUnits="userSpaceOnUse"><stop offset="0" stop-color="#2cf6a7"/><stop offset="1" stop-color="#99ee62"/></linearGradient></defs><g><g transform="translate(-534 412)"><g opacity=".43" transform="rotate(24 1100 172)"><use fill="#20f7ae" xlink:href="#9lrka"/></g><g opacity=".43" transform="rotate(18 1042 96)"><use fill="#20f7ae" xlink:href="#9lrkb"/><use fill="url(#9lrkc)" xlink:href="#9lrkb"/></g></g></g></svg>