<svg xmlns="http://www.w3.org/2000/svg" xmlns:xlink="http://www.w3.org/1999/xlink" width="63" height="65" viewBox="0 0 63 65"><defs><path id="1lyoa" d="M603.037 361.076l-.05-.021-8.084-7.452a1.242 1.242 0 0 0-1.65 0l-.01.008c-.218.2-.353.469-.353.761v14.906c0 .301.146.572.364.77a1.242 1.242 0 0 0 1.65 0l8.133-7.463a1.018 1.018 0 0 0 0-1.509z"/><mask id="1lyoc" width="2" height="2" x="-1" y="-1"><path fill="#fff" d="M592 353h12v18h-12z"/><use xlink:href="#1lyoa"/></mask><filter id="1lyob" width="112" height="128" x="542" y="303" filterUnits="userSpaceOnUse"><feOffset dy="10" in="SourceGraphic" result="FeOffset1023Out"/><feGaussianBlur in="FeOffset1023Out" result="FeGaussianBlur1024Out" stdDeviation="16 16"/></filter></defs><g><g transform="translate(-565 -339)"><g filter="url(#1lyob)"><use fill="none" stroke-opacity=".15" stroke-width="0" mask="url(&quot;#1lyoc&quot;)" xlink:href="#1lyoa"/><use fill="#2cda9c" fill-opacity=".15" xlink:href="#1lyoa"/></g><use fill="#fff" xlink:href="#1lyoa"/></g></g></svg>